HIERARCHY
ROOT root
{
	OFFSET 0.000000 0.000000 0.000000
	CHANNELS 6 Xposition Yposition Zposition Zrotation Yrotation Xrotation
	JOINT lhip
	{
		OFFSET 0.058581 -0.082280 -0.017664
		CHANNELS 3 Zrotation Yrotation Xrotation
		JOINT lknee
		{
			OFFSET 0.043451 -0.386469 0.008037
			CHANNELS 3 Zrotation Yrotation Xrotation
			JOINT lankle
			{
				OFFSET -0.014790 -0.426874 -0.037428
				CHANNELS 3 Zrotation Yrotation Xrotation
				JOINT ltoe
				{
					OFFSET 0.041054 -0.060286 0.122042
					CHANNELS 3 Zrotation Yrotation Xrotation
					End Site
					{
						OFFSET 0.000000 0.000000 0.000000
					}
				}
			}
		}
	}
	JOINT rhip
	{
		OFFSET -0.060310 -0.090513 -0.013543
		CHANNELS 3 Zrotation Yrotation Xrotation
		JOINT rknee
		{
			OFFSET -0.043257 -0.383688 -0.004843
			CHANNELS 3 Zrotation Yrotation Xrotation
			JOINT rankle
			{
				OFFSET 0.019056 -0.420046 -0.034562
				CHANNELS 3 Zrotation Yrotation Xrotation
				JOINT rtoe
				{
					OFFSET -0.034840 -0.062106 0.130323
					CHANNELS 3 Zrotation Yrotation Xrotation
					End Site
					{
						OFFSET 0.000000 0.000000 0.000000
					}
				}
			}
		}
	}
	JOINT lowerback
	{
		OFFSET 0.004439 0.124404 -0.038385
		CHANNELS 3 Zrotation Yrotation Xrotation
		JOINT upperback
		{
			OFFSET 0.004488 0.137956 0.026820
			CHANNELS 3 Zrotation Yrotation Xrotation
			JOINT chest
			{
				OFFSET -0.002265 0.056032 0.002855
				CHANNELS 3 Zrotation Yrotation Xrotation
				JOINT lowerneck
				{
					OFFSET -0.013390 0.211636 -0.033468
					CHANNELS 3 Zrotation Yrotation Xrotation
					JOINT upperneck
					{
						OFFSET 0.010113 0.088937 0.050410
						CHANNELS 3 Zrotation Yrotation Xrotation
						End Site
						{
							OFFSET 0.000000 0.000000 0.000000
						}
					}
				}
				JOINT lclavicle
				{
					OFFSET 0.071702 0.114000 -0.018898
					CHANNELS 3 Zrotation Yrotation Xrotation
					JOINT lshoulder
					{
						OFFSET 0.122921 0.045205 -0.019046
						CHANNELS 3 Zrotation Yrotation Xrotation
						JOINT lelbow
						{
							OFFSET 0.255332 -0.015649 -0.022946
							CHANNELS 3 Zrotation Yrotation Xrotation
							JOINT lwrist
							{
								OFFSET 0.265709 0.012698 -0.007375
								CHANNELS 3 Zrotation Yrotation Xrotation
								End Site
								{
									OFFSET 0.000000 0.000000 0.000000
								}
							}
						}
					}
				}
				JOINT rclavicle
				{
					OFFSET -0.082954 0.112472 -0.023707
					CHANNELS 3 Zrotation Yrotation Xrotation
					JOINT rshoulder
					{
						OFFSET -0.113228 0.046853 -0.008472
						CHANNELS 3 Zrotation Yrotation Xrotation
						JOINT relbow
						{
							OFFSET -0.260127 -0.014369 -0.031269
							CHANNELS 3 Zrotation Yrotation Xrotation
							JOINT rwrist
							{
								OFFSET -0.269108 0.006794 -0.006027
								CHANNELS 3 Zrotation Yrotation Xrotation
								End Site
								{
									OFFSET 0.000000 0.000000 0.000000
								}
							}
						}
					}
				}
			}
		}
	}
}
MOTION
Frames: 17
Frame Time: 0.033333
-0.041453 0.249455 1.010912 33.251984 -0.244114 81.789239 0.714503 -9.053150 -8.823130 -10.653030 -8.631263 57.702113 -3.379980 5.279528 -9.353583 0.000000 -0.000000 0.000000 0.584960 0.399884 -1.017602 2.207461 4.739377 24.926085 2.719427 0.803369 -14.825224 0.000000 -0.000000 0.000000 3.595219 4.791737 18.069170 -0.888295 4.576894 1.246950 -1.537526 4.403330 2.326731 -3.474349 34.645678 11.434964 -9.345682 31.219500 13.016844 -30.295844 10.115535 0.206314 -57.976121 8.946468 8.452677 10.040384 -46.692358 3.536641 9.463801 -2.401462 -17.364836 28.644957 1.950414 6.668654 51.377555 16.934174 11.922391 -27.027219 39.870355 -19.084582 -5.701862 3.843073 -10.831798 
-0.050214 0.275652 1.012222 33.201823 0.194525 82.321804 1.009338 -7.953960 -5.455567 -10.997487 -10.837786 59.153195 -7.357221 2.002709 -3.580635 0.000000 -0.000000 0.000000 0.311020 0.628869 -3.339627 1.757635 2.908876 24.711633 3.266732 2.685026 -13.078424 0.000000 -0.000000 0.000000 3.568036 3.814238 16.503453 -0.727599 4.454836 2.373232 -1.218510 4.280335 1.184050 -2.942506 34.408912 13.857452 -9.891954 31.122455 11.051201 -30.185355 10.331709 1.537129 -58.292035 10.202394 5.525699 9.140937 -47.056955 3.938729 4.283241 -4.662666 -14.556182 28.572189 1.994944 7.981886 50.915299 16.754826 8.800561 -25.396828 41.243899 -19.217486 -5.985940 4.593667 -7.598257 
-0.058498 0.302033 1.010768 33.202572 0.817832 82.455811 1.698152 -6.219300 -1.015178 -13.253982 -15.158996 58.418148 -9.655364 -0.543107 2.585024 0.000000 -0.000000 0.000000 0.334388 0.826192 -5.128332 1.832715 2.358152 24.433125 2.832976 2.968397 -11.904045 0.000000 -0.000000 0.000000 3.795463 2.579861 15.296296 -0.347639 4.689349 3.323938 -1.192146 4.046705 0.888197 -2.476268 34.479317 14.549052 -10.076463 30.903364 10.735772 -30.012255 10.707925 1.724875 -58.063664 10.773918 5.446891 7.820356 -47.108688 4.858339 3.980711 -4.543826 -14.880769 28.832046 1.793753 8.023403 50.615180 16.288910 8.116533 -25.007982 41.522001 -19.193821 -5.583650 4.789894 -7.038142 
-0.066385 0.328891 1.006992 33.244783 1.499301 82.652843 2.597704 -4.722776 3.627508 -14.745446 -19.483507 55.409709 -12.607107 -2.119701 7.577674 0.000000 -0.000000 0.000000 0.423636 1.241702 -7.008526 1.891317 1.888469 24.299624 2.274339 3.253580 -11.237782 0.000000 -0.000000 0.000000 3.963925 1.306324 14.033855 0.071482 4.837639 4.180942 -1.089649 3.793235 0.606959 -1.831582 34.602062 15.170028 -9.961750 30.195491 10.760120 -30.103168 11.044124 1.751638 -57.835038 10.972992 5.533784 7.598702 -47.051469 4.911495 3.841425 -4.746840 -14.678736 29.107843 1.336888 8.121160 50.403751 15.770505 7.729772 -24.292922 41.693474 -18.412500 -5.783612 4.725299 -6.936080 
-0.073716 0.357997 1.001675 33.204589 1.978849 82.762864 2.899772 -4.131145 8.706327 -14.607043 -23.446031 49.592251 -13.806309 -2.325875 10.773431 0.000000 -0.000000 0.000000 0.113912 1.769873 -9.124235 2.021299 1.346166 24.506648 2.078161 3.315535 -10.936200 0.000000 -0.000000 0.000000 4.095184 0.240411 13.115934 0.350763 5.028785 4.863545 -1.023603 3.309799 0.410012 -1.104715 34.590291 15.647809 -10.010761 29.766618 11.194186 -30.390147 11.201754 1.589209 -57.629841 10.425890 5.912821 8.024016 -46.422024 4.302774 3.191693 -4.713637 -14.562509 29.487943 0.776188 7.962712 50.410522 15.198729 7.892986 -23.951210 41.320620 -18.116983 -5.614793 4.834516 -6.656973 
-0.081298 0.390930 0.995093 33.297267 2.311932 83.477696 2.337580 -4.858049 12.932019 -12.651783 -26.437885 41.585984 -10.812596 -0.448408 10.534338 0.000000 -0.000000 0.000000 -0.690631 2.995688 -12.403296 2.508858 0.922538 25.091964 2.477572 2.376574 -10.021651 0.000000 -0.000000 0.000000 4.009776 -0.976043 12.351982 0.536199 5.272503 4.561314 -0.904389 2.796668 0.630359 -0.691918 34.219848 15.609209 -10.143084 29.840963 11.469277 -30.780494 11.550273 1.359955 -57.594496 9.092939 6.669527 8.870818 -45.738404 2.996006 3.849150 -4.575301 -14.477869 29.792426 -0.126903 7.732065 50.603015 14.792496 8.783721 -23.841533 40.656576 -18.363866 -5.310404 4.970478 -6.526956 
-0.089399 0.426463 0.988482 33.760113 2.834898 84.115312 1.922682 -5.199921 16.379834 -10.779607 -31.382544 35.118572 -8.828988 -1.404999 3.209705 0.000000 -0.000000 0.000000 -1.340263 3.824832 -15.536070 2.467465 0.656831 25.368552 3.945444 1.786742 -8.741957 0.000000 -0.000000 0.000000 4.176367 -2.258028 12.154544 0.663196 5.316368 3.897841 -0.762180 2.280697 1.089936 -0.031050 34.287305 15.464026 -10.315693 29.137517 11.806946 -31.071618 11.178342 1.207693 -58.033098 7.307580 7.389226 10.498049 -44.988618 0.911081 4.845864 -4.682460 -14.712951 30.127392 -0.787746 7.549490 50.658392 14.152008 9.339263 -23.979480 40.268926 -18.676580 -5.518177 5.041455 -6.314507 
-0.099829 0.466855 0.981924 33.694475 3.629003 84.956877 1.988777 -6.085271 17.849637 -8.644035 -31.288773 29.724097 -3.582850 3.911866 -7.558573 0.000000 -0.000000 0.000000 -1.885158 5.327155 -18.690025 3.042234 1.797937 24.664141 5.704996 -0.230806 -6.604990 0.000000 -0.000000 0.000000 4.392480 -3.271211 12.557089 0.943556 5.477142 3.102813 -0.628042 1.739452 1.863056 -0.284308 33.849887 12.828195 -10.003200 29.703089 13.814327 -31.910877 11.064337 0.415940 -57.888085 4.681569 9.700187 11.862546 -44.427922 -0.730939 9.263684 -3.381538 -15.922772 31.091369 -1.731599 6.194401 50.272476 13.646528 12.702897 -25.606352 39.207075 -19.132252 -4.682762 4.654188 -8.769830 
-0.109818 0.508509 0.977797 32.613487 3.729562 85.377560 1.977621 -5.178609 17.931060 -7.157254 -29.834236 25.273357 -0.006326 5.464259 -14.925095 0.000000 -0.000000 0.000000 -2.988690 5.554983 -20.917668 2.999105 2.431507 22.494460 8.433257 -0.136097 -3.057014 0.000000 -0.000000 0.000000 3.845466 -3.598102 14.199402 0.887999 5.570552 2.101372 -0.354466 1.323002 1.945188 -0.190632 33.770307 11.153933 -9.673382 29.821509 15.368182 -32.483990 10.399296 -0.109283 -57.827498 2.257636 10.366450 12.963646 -44.053063 -2.236222 10.208750 -3.936769 -15.579750 32.154254 -2.278084 5.475056 50.030249 13.240194 13.889014 -26.223619 38.423558 -19.798835 -3.660221 5.002375 -8.160713 
-0.119037 0.549189 0.976127 30.604894 3.279932 85.467072 1.224176 -4.087029 16.919061 -6.372655 -27.941359 22.301084 1.993843 5.817672 -18.876943 0.000000 -0.000000 0.000000 -4.214949 4.615657 -21.997714 2.823695 2.792004 18.604124 12.073108 1.209727 1.411600 0.000000 -0.000000 0.000000 3.297163 -3.105635 15.823583 0.339868 5.344527 1.740243 -0.358465 0.909016 2.235622 -1.077896 33.508315 9.712152 -9.429323 29.523138 15.420663 -32.375776 8.877350 -0.378268 -58.024406 -0.291653 10.572290 14.745675 -43.707897 -4.896266 11.747963 -4.453712 -15.366838 32.920754 -2.361159 4.865421 50.951819 13.410848 14.271594 -26.558963 37.038350 -20.581503 -2.995391 5.299847 -6.730192 
-0.126966 0.586300 0.975951 27.627338 3.269651 85.964359 0.416905 -3.428266 14.594371 -6.431182 -26.013732 21.435709 3.716459 6.693683 -21.489179 0.000000 -0.000000 0.000000 -4.001128 3.294066 -23.652431 2.644257 3.070686 16.573836 15.139657 2.002717 -0.328978 0.000000 -0.000000 0.000000 3.175908 -2.481147 16.541883 0.040992 5.069578 1.088137 -0.462135 0.981852 2.440164 -1.458312 33.725395 9.484041 -9.029907 29.237998 15.834680 -31.789431 7.799163 -0.581936 -57.893394 -1.859770 10.794511 15.324000 -44.045011 -7.038205 13.753704 -4.001865 -15.967469 32.836899 -2.379009 5.285373 52.370008 13.011703 14.581558 -26.555253 36.369630 -21.097409 -3.723802 5.065546 -6.291831 
-0.133424 0.618976 0.978827 23.565992 3.468943 85.729920 -0.803731 -2.791087 13.540846 -5.576125 -23.488394 19.890473 4.459245 8.281862 -21.968485 0.000000 -0.000000 0.000000 -2.765996 3.712183 -24.765207 2.661137 2.384435 18.598043 13.954237 2.436627 -6.850884 0.000000 -0.000000 0.000000 3.119760 -2.351065 17.519271 -0.361411 5.471428 0.618687 -0.703456 1.498964 2.699900 -1.701931 34.307431 9.410568 -8.889416 28.415728 16.496394 -31.479419 7.111247 -1.274352 -57.250077 -2.631991 10.860613 16.532436 -44.817169 -9.080770 13.034457 -3.900364 -16.634073 32.963412 -1.941084 5.698741 53.292148 12.021164 14.975685 -26.201882 35.815068 -20.589042 -3.116482 5.084477 -5.939975 
-0.138529 0.647933 0.983607 19.758219 3.584020 85.156166 -1.779664 -2.197788 12.690437 -5.005374 -21.534346 18.946406 4.857778 9.397153 -21.380284 0.000000 -0.000000 0.000000 -1.175646 3.874364 -25.482615 1.377820 -1.561626 24.238403 11.330515 -0.851707 -11.251323 0.000000 -0.000000 0.000000 2.735096 -2.568349 18.476612 -0.704617 5.996244 -0.059789 -0.685275 1.869374 3.096864 -1.913099 34.121426 9.366662 -8.878115 28.421521 17.030037 -31.075439 7.038973 -1.747414 -56.716825 -3.408256 10.346988 17.493576 -45.787304 -10.434528 12.760142 -3.411525 -17.621043 32.754397 -1.741412 5.882719 54.069483 10.836692 15.468091 -25.093683 35.507610 -18.846738 -2.527634 5.244899 -5.649839 
-0.140804 0.674293 0.989276 16.647532 3.374411 84.668855 -3.083391 -2.123894 11.760504 -4.479851 -20.244731 18.309671 5.201920 10.594425 -19.910734 0.000000 -0.000000 0.000000 -0.378436 3.216806 -25.551089 -0.178109 -5.221209 31.582895 8.349338 -4.833988 -14.068690 0.000000 -0.000000 0.000000 2.744670 -2.909754 18.729996 -1.117214 6.072980 -0.527522 -1.042054 1.934229 3.650881 -2.537586 33.775273 9.452846 -8.336419 28.258649 17.095030 -30.446486 7.118811 -1.602745 -56.444603 -4.240288 9.616194 19.043057 -46.598739 -12.187380 13.571121 -2.683167 -18.974966 32.230739 -1.963865 5.644158 55.328787 9.539540 15.784143 -24.225293 35.308298 -17.071669 -2.334451 5.213690 -5.242853 
-0.141827 0.698190 0.995626 14.369395 3.401037 84.092963 -3.650800 -2.579917 10.892829 -4.541542 -18.598175 17.949786 5.262537 11.203684 -18.049687 0.000000 -0.000000 0.000000 -0.382746 3.183939 -24.305897 -0.810935 -7.957858 39.064441 6.270656 -7.170632 -15.258377 0.000000 -0.000000 0.000000 3.014858 -3.336561 18.809730 -1.093265 5.718337 -0.426820 -1.330519 1.754308 3.727192 -3.179071 33.094104 9.617657 -8.337258 28.312165 16.725086 -30.462868 6.840861 -1.244879 -55.658834 -4.635589 8.908847 20.839342 -47.250277 -14.334487 13.361769 -2.124624 -20.198428 31.956873 -2.178810 5.877594 55.523748 8.142005 15.651898 -23.927181 35.770296 -16.143286 -1.527817 5.312918 -5.351838 
-0.145454 0.722397 1.000852 11.267337 3.681772 84.820640 -3.617321 -2.875430 8.326023 -4.583794 -16.594765 17.891205 5.885101 11.485320 -16.502097 0.000000 -0.000000 0.000000 0.900788 2.700802 -24.296140 -1.256543 -7.521875 46.500989 5.186346 -7.661098 -15.194345 0.000000 -0.000000 0.000000 3.126165 -2.747961 17.504311 -0.682303 5.508463 -0.394657 -1.326534 1.715516 3.715547 -3.577755 32.193397 9.618448 -8.262424 28.436903 16.403461 -30.476215 6.969088 -1.550076 -55.258482 -4.780904 8.465111 22.242419 -47.641813 -16.393699 14.257896 -1.421758 -20.097902 31.637812 -2.805250 6.018958 54.944624 6.745641 15.711731 -22.805447 36.856926 -15.093325 -1.584104 5.358752 -5.432231 
-0.147300 0.744604 1.004867 8.448228 3.614887 84.945292 -4.056591 -3.326829 6.731869 -4.492035 -14.795384 17.571077 5.955756 11.900119 -14.967854 0.000000 -0.000000 0.000000 1.463651 2.396555 -22.470269 -1.454265 -6.762194 52.585028 4.980642 -7.631655 -14.679941 0.000000 -0.000000 0.000000 3.055216 -2.172464 16.495110 -0.333959 5.233240 -0.243605 -1.401178 1.776368 3.862531 -3.473836 30.943880 9.448033 -7.879517 27.891276 16.786900 -30.623048 7.021770 -1.937700 -54.612958 -5.061103 7.990447 23.035036 -47.737509 -17.721021 14.621293 -1.433593 -19.306622 31.326675 -3.086352 5.973735 54.568773 5.213909 15.826340 -22.403065 37.225052 -14.445610 -1.047798 5.079033 -5.858579 
